<?xml version="1.0" encoding="UTF-8" standalone="no"?>
<!-- Created with Inkscape (http://www.inkscape.org/) -->
<svg
   xmlns:dc="http://purl.org/dc/elements/1.1/"
   xmlns:cc="http://creativecommons.org/ns#"
   xmlns:rdf="http://www.w3.org/1999/02/22-rdf-syntax-ns#"
   xmlns:svg="http://www.w3.org/2000/svg"
   xmlns="http://www.w3.org/2000/svg"
   xmlns:sodipodi="http://sodipodi.sourceforge.net/DTD/sodipodi-0.dtd"
   xmlns:inkscape="http://www.inkscape.org/namespaces/inkscape"
   width="210mm"
   height="297mm"
   id="svg2"
   sodipodi:version="0.32"
   inkscape:version="0.46"
   sodipodi:docname="estados.svg"
   inkscape:output_extension="org.inkscape.output.svg.inkscape">
  <defs
     id="defs4">
    <inkscape:perspective
       sodipodi:type="inkscape:persp3d"
       inkscape:vp_x="0 : 526.18109 : 1"
       inkscape:vp_y="0 : 1000 : 0"
       inkscape:vp_z="744.09448 : 526.18109 : 1"
       inkscape:persp3d-origin="372.04724 : 350.78739 : 1"
       id="perspective10" />
  </defs>
  <sodipodi:namedview
     id="base"
     pagecolor="#ffffff"
     bordercolor="#666666"
     borderopacity="1.0"
     inkscape:pageopacity="0.0"
     inkscape:pageshadow="2"
     inkscape:zoom="0.98994949"
     inkscape:cx="172.06895"
     inkscape:cy="817.77574"
     inkscape:document-units="px"
     inkscape:current-layer="layer1"
     showgrid="false"
     inkscape:window-width="1263"
     inkscape:window-height="777"
     inkscape:window-x="0"
     inkscape:window-y="22" />
  <metadata
     id="metadata7">
    <rdf:RDF>
      <cc:Work
         rdf:about="">
        <dc:format>image/svg+xml</dc:format>
        <dc:type
           rdf:resource="http://purl.org/dc/dcmitype/StillImage" />
      </cc:Work>
    </rdf:RDF>
  </metadata>
  <g
     inkscape:label="Capa 1"
     inkscape:groupmode="layer"
     id="layer1">
    <g
       id="g3297"
       inkscape:export-filename="/opt/lampp/htdocs/asamblea/creado.png"
       inkscape:export-xdpi="150"
       inkscape:export-ydpi="150">
      <path
         id="rect2383"
         d="M 31.4375,124.96396 L 31.4375,179.8211 L 86.294643,179.8211 L 86.294643,124.96396 L 31.4375,124.96396 z M 34.694643,128.2211 L 83.023214,128.2211 L 83.023214,176.54968 L 34.694643,176.54968 L 34.694643,128.2211 z"
         style="opacity:1;fill:#b3b3b3;fill-opacity:1;fill-rule:nonzero;stroke:none;stroke-width:1;stroke-linecap:round;stroke-linejoin:round;stroke-miterlimit:4;stroke-dasharray:none;stroke-dashoffset:0;stroke-opacity:1" />
      <text
         sodipodi:linespacing="100%"
         id="text3261"
         y="150.64738"
         x="40.662582"
         style="font-size:21.9312439px;font-style:normal;font-variant:normal;font-weight:normal;font-stretch:normal;text-align:start;line-height:100%;writing-mode:lr-tb;text-anchor:start;opacity:0.2;fill:#000000;fill-opacity:1;stroke:none;stroke-width:1px;stroke-linecap:butt;stroke-linejoin:miter;stroke-opacity:1;font-family:Georgia"
         xml:space="preserve"><tspan
           y="150.64738"
           x="40.662582"
           id="tspan3263"
           sodipodi:role="line">A</tspan></text>
    </g>
    <g
       id="g3317"
       inkscape:export-filename="/opt/lampp/htdocs/asamblea/entrada.png"
       inkscape:export-xdpi="150"
       inkscape:export-ydpi="150">
      <path
         id="path3158"
         d="M 104.58036,124.96396 L 104.58036,179.8211 L 159.4375,179.8211 L 159.4375,124.96396 L 142.78036,124.96396 L 142.78036,128.2211 L 156.16607,128.2211 L 156.16607,176.54968 L 107.8375,176.54968 L 107.8375,128.2211 L 121.88036,128.2211 L 121.88036,124.96396 L 104.58036,124.96396 z"
         style="opacity:1;fill:#aad400;fill-opacity:1;fill-rule:nonzero;stroke:none;stroke-width:1;stroke-linecap:round;stroke-linejoin:round;stroke-miterlimit:4;stroke-dasharray:none;stroke-dashoffset:0;stroke-opacity:1" />
      <path
         transform="matrix(0.4571429,0,0,0.4571429,12.474752,99.341599)"
         d="M 242.85714,158.79076 A 9.2857141,9.2857141 0 1 1 224.28571,158.79076 A 9.2857141,9.2857141 0 1 1 242.85714,158.79076 z"
         sodipodi:ry="9.2857141"
         sodipodi:rx="9.2857141"
         sodipodi:cy="158.79076"
         sodipodi:cx="233.57143"
         id="path3163"
         style="opacity:1;fill:#b3b3b3;fill-opacity:1;fill-rule:nonzero;stroke:#ffffff;stroke-width:2.1875;stroke-linecap:round;stroke-linejoin:round;stroke-miterlimit:4;stroke-dasharray:none;stroke-dashoffset:0;stroke-opacity:1"
         sodipodi:type="arc" />
      <path
         transform="matrix(0.4571429,0,0,0.4571429,21.087932,99.339501)"
         sodipodi:type="arc"
         style="opacity:1;fill:#b3b3b3;fill-opacity:1;fill-rule:nonzero;stroke:#ffffff;stroke-width:2.1875;stroke-linecap:round;stroke-linejoin:round;stroke-miterlimit:4;stroke-dasharray:none;stroke-dashoffset:0;stroke-opacity:1"
         id="path3165"
         sodipodi:cx="233.57143"
         sodipodi:cy="158.79076"
         sodipodi:rx="9.2857141"
         sodipodi:ry="9.2857141"
         d="M 242.85714,158.79076 A 9.2857141,9.2857141 0 1 1 224.28571,158.79076 A 9.2857141,9.2857141 0 1 1 242.85714,158.79076 z" />
      <path
         d="M 242.85714,158.79076 A 9.2857141,9.2857141 0 1 1 224.28571,158.79076 A 9.2857141,9.2857141 0 1 1 242.85714,158.79076 z"
         sodipodi:ry="9.2857141"
         sodipodi:rx="9.2857141"
         sodipodi:cy="158.79076"
         sodipodi:cx="233.57143"
         id="path3167"
         style="opacity:1;fill:#b3b3b3;fill-opacity:1;fill-rule:nonzero;stroke:#ffffff;stroke-width:2.1875;stroke-linecap:round;stroke-linejoin:round;stroke-miterlimit:4;stroke-dasharray:none;stroke-dashoffset:0;stroke-opacity:1"
         sodipodi:type="arc"
         transform="matrix(0.4571429,0,0,0.4571429,38.306361,99.351426)" />
      <path
         transform="matrix(0.4571429,0,0,0.4571429,34.057184,91.661179)"
         sodipodi:type="arc"
         style="opacity:1;fill:#b3b3b3;fill-opacity:1;fill-rule:nonzero;stroke:#ffffff;stroke-width:2.1875;stroke-linecap:round;stroke-linejoin:round;stroke-miterlimit:4;stroke-dasharray:none;stroke-dashoffset:0;stroke-opacity:1"
         id="path3209"
         sodipodi:cx="233.57143"
         sodipodi:cy="158.79076"
         sodipodi:rx="9.2857141"
         sodipodi:ry="9.2857141"
         d="M 242.85714,158.79076 A 9.2857141,9.2857141 0 1 1 224.28571,158.79076 A 9.2857141,9.2857141 0 1 1 242.85714,158.79076 z" />
      <path
         transform="matrix(0.4571429,0,0,0.4571429,29.721366,99.388451)"
         sodipodi:type="arc"
         style="opacity:1;fill:#b3b3b3;fill-opacity:1;fill-rule:nonzero;stroke:#ffffff;stroke-width:2.1875;stroke-linecap:round;stroke-linejoin:round;stroke-miterlimit:4;stroke-dasharray:none;stroke-dashoffset:0;stroke-opacity:1"
         id="path3169"
         sodipodi:cx="233.57143"
         sodipodi:cy="158.79076"
         sodipodi:rx="9.2857141"
         sodipodi:ry="9.2857141"
         d="M 242.85714,158.79076 A 9.2857141,9.2857141 0 1 1 224.28571,158.79076 A 9.2857141,9.2857141 0 1 1 242.85714,158.79076 z" />
      <path
         d="M 242.85714,158.79076 A 9.2857141,9.2857141 0 1 1 224.28571,158.79076 A 9.2857141,9.2857141 0 1 1 242.85714,158.79076 z"
         sodipodi:ry="9.2857141"
         sodipodi:rx="9.2857141"
         sodipodi:cy="158.79076"
         sodipodi:cx="233.57143"
         id="path3211"
         style="opacity:1;fill:#b3b3b3;fill-opacity:1;fill-rule:nonzero;stroke:#ffffff;stroke-width:2.1875;stroke-linecap:round;stroke-linejoin:round;stroke-miterlimit:4;stroke-dasharray:none;stroke-dashoffset:0;stroke-opacity:1"
         sodipodi:type="arc"
         transform="matrix(0.4571429,0,0,0.4571429,25.490829,91.711248)" />
      <path
         transform="matrix(0.4571429,0,0,0.4571429,16.81105,91.602885)"
         sodipodi:type="arc"
         style="opacity:1;fill:#b3b3b3;fill-opacity:1;fill-rule:nonzero;stroke:#ffffff;stroke-width:2.1875;stroke-linecap:round;stroke-linejoin:round;stroke-miterlimit:4;stroke-dasharray:none;stroke-dashoffset:0;stroke-opacity:1"
         id="path3213"
         sodipodi:cx="233.57143"
         sodipodi:cy="158.79076"
         sodipodi:rx="9.2857141"
         sodipodi:ry="9.2857141"
         d="M 242.85714,158.79076 A 9.2857141,9.2857141 0 1 1 224.28571,158.79076 A 9.2857141,9.2857141 0 1 1 242.85714,158.79076 z" />
      <path
         d="M 242.85714,158.79076 A 9.2857141,9.2857141 0 1 1 224.28571,158.79076 A 9.2857141,9.2857141 0 1 1 242.85714,158.79076 z"
         sodipodi:ry="9.2857141"
         sodipodi:rx="9.2857141"
         sodipodi:cy="158.79076"
         sodipodi:cx="233.57143"
         id="path3217"
         style="opacity:1;fill:#b3b3b3;fill-opacity:1;fill-rule:nonzero;stroke:#ffffff;stroke-width:2.1875;stroke-linecap:round;stroke-linejoin:round;stroke-miterlimit:4;stroke-dasharray:none;stroke-dashoffset:0;stroke-opacity:1"
         sodipodi:type="arc"
         transform="matrix(0.4571429,0,0,0.4571429,29.711619,83.914633)" />
      <path
         transform="matrix(0.4571429,0,0,0.4571429,21.174478,83.936677)"
         sodipodi:type="arc"
         style="opacity:1;fill:#b3b3b3;fill-opacity:1;fill-rule:nonzero;stroke:#ffffff;stroke-width:2.1875;stroke-linecap:round;stroke-linejoin:round;stroke-miterlimit:4;stroke-dasharray:none;stroke-dashoffset:0;stroke-opacity:1"
         id="path3219"
         sodipodi:cx="233.57143"
         sodipodi:cy="158.79076"
         sodipodi:rx="9.2857141"
         sodipodi:ry="9.2857141"
         d="M 242.85714,158.79076 A 9.2857141,9.2857141 0 1 1 224.28571,158.79076 A 9.2857141,9.2857141 0 1 1 242.85714,158.79076 z" />
      <path
         transform="matrix(0.4571429,0,0,0.4571429,25.028777,57.118792)"
         sodipodi:type="arc"
         style="opacity:1;fill:#b3b3b3;fill-opacity:1;fill-rule:nonzero;stroke:#ffffff;stroke-width:2.1875;stroke-linecap:round;stroke-linejoin:round;stroke-miterlimit:4;stroke-dasharray:none;stroke-dashoffset:0;stroke-opacity:1"
         id="path3221"
         sodipodi:cx="233.57143"
         sodipodi:cy="158.79076"
         sodipodi:rx="9.2857141"
         sodipodi:ry="9.2857141"
         d="M 242.85714,158.79076 A 9.2857141,9.2857141 0 1 1 224.28571,158.79076 A 9.2857141,9.2857141 0 1 1 242.85714,158.79076 z" />
      <text
         xml:space="preserve"
         style="font-size:21.9312439px;font-style:normal;font-variant:normal;font-weight:normal;font-stretch:normal;text-align:start;line-height:100%;writing-mode:lr-tb;text-anchor:start;opacity:0.2;fill:#000000;fill-opacity:1;stroke:none;stroke-width:1px;stroke-linecap:butt;stroke-linejoin:miter;stroke-opacity:1;font-family:Georgia"
         x="112.20959"
         y="150.64738"
         id="text3265"
         sodipodi:linespacing="100%"><tspan
           sodipodi:role="line"
           id="tspan3267"
           x="112.20959"
           y="150.64738">B</tspan></text>
    </g>
    <g
       id="g3332"
       inkscape:export-filename="/opt/lampp/htdocs/asamblea/iniciada.png"
       inkscape:export-xdpi="150"
       inkscape:export-ydpi="150">
      <path
         style="opacity:1;fill:#ffcc00;fill-opacity:1;fill-rule:nonzero;stroke:none;stroke-width:1;stroke-linecap:round;stroke-linejoin:round;stroke-miterlimit:4;stroke-dasharray:none;stroke-dashoffset:0;stroke-opacity:1"
         d="M 177.72321,124.96396 L 177.72321,179.8211 L 232.58036,179.8211 L 232.58036,124.96396 L 177.72321,124.96396 z M 180.98036,128.2211 L 229.30893,128.2211 L 229.30893,176.54968 L 180.98036,176.54968 L 180.98036,128.2211 z"
         id="path3171" />
      <path
         sodipodi:type="arc"
         style="opacity:1;fill:#b3b3b3;fill-opacity:1;fill-rule:nonzero;stroke:#ffffff;stroke-width:2.1875;stroke-linecap:round;stroke-linejoin:round;stroke-miterlimit:4;stroke-dasharray:none;stroke-dashoffset:0;stroke-opacity:1"
         id="path3223"
         sodipodi:cx="233.57143"
         sodipodi:cy="158.79076"
         sodipodi:rx="9.2857141"
         sodipodi:ry="9.2857141"
         d="M 242.85714,158.79076 A 9.2857141,9.2857141 0 1 1 224.28571,158.79076 A 9.2857141,9.2857141 0 1 1 242.85714,158.79076 z"
         transform="matrix(0.4571429,0,0,0.4571429,84.703324,99.341599)" />
      <path
         d="M 242.85714,158.79076 A 9.2857141,9.2857141 0 1 1 224.28571,158.79076 A 9.2857141,9.2857141 0 1 1 242.85714,158.79076 z"
         sodipodi:ry="9.2857141"
         sodipodi:rx="9.2857141"
         sodipodi:cy="158.79076"
         sodipodi:cx="233.57143"
         id="path3225"
         style="opacity:1;fill:#b3b3b3;fill-opacity:1;fill-rule:nonzero;stroke:#ffffff;stroke-width:2.1875;stroke-linecap:round;stroke-linejoin:round;stroke-miterlimit:4;stroke-dasharray:none;stroke-dashoffset:0;stroke-opacity:1"
         sodipodi:type="arc"
         transform="matrix(0.4571429,0,0,0.4571429,93.316503,99.339501)" />
      <path
         transform="matrix(0.4571429,0,0,0.4571429,110.53493,99.351426)"
         sodipodi:type="arc"
         style="opacity:1;fill:#b3b3b3;fill-opacity:1;fill-rule:nonzero;stroke:#ffffff;stroke-width:2.1875;stroke-linecap:round;stroke-linejoin:round;stroke-miterlimit:4;stroke-dasharray:none;stroke-dashoffset:0;stroke-opacity:1"
         id="path3227"
         sodipodi:cx="233.57143"
         sodipodi:cy="158.79076"
         sodipodi:rx="9.2857141"
         sodipodi:ry="9.2857141"
         d="M 242.85714,158.79076 A 9.2857141,9.2857141 0 1 1 224.28571,158.79076 A 9.2857141,9.2857141 0 1 1 242.85714,158.79076 z" />
      <path
         d="M 242.85714,158.79076 A 9.2857141,9.2857141 0 1 1 224.28571,158.79076 A 9.2857141,9.2857141 0 1 1 242.85714,158.79076 z"
         sodipodi:ry="9.2857141"
         sodipodi:rx="9.2857141"
         sodipodi:cy="158.79076"
         sodipodi:cx="233.57143"
         id="path3229"
         style="opacity:1;fill:#b3b3b3;fill-opacity:1;fill-rule:nonzero;stroke:#ffffff;stroke-width:2.1875;stroke-linecap:round;stroke-linejoin:round;stroke-miterlimit:4;stroke-dasharray:none;stroke-dashoffset:0;stroke-opacity:1"
         sodipodi:type="arc"
         transform="matrix(0.4571429,0,0,0.4571429,106.28576,91.661179)" />
      <path
         d="M 242.85714,158.79076 A 9.2857141,9.2857141 0 1 1 224.28571,158.79076 A 9.2857141,9.2857141 0 1 1 242.85714,158.79076 z"
         sodipodi:ry="9.2857141"
         sodipodi:rx="9.2857141"
         sodipodi:cy="158.79076"
         sodipodi:cx="233.57143"
         id="path3231"
         style="opacity:1;fill:#b3b3b3;fill-opacity:1;fill-rule:nonzero;stroke:#ffffff;stroke-width:2.1875;stroke-linecap:round;stroke-linejoin:round;stroke-miterlimit:4;stroke-dasharray:none;stroke-dashoffset:0;stroke-opacity:1"
         sodipodi:type="arc"
         transform="matrix(0.4571429,0,0,0.4571429,101.94994,99.388451)" />
      <path
         transform="matrix(0.4571429,0,0,0.4571429,97.719402,91.711248)"
         sodipodi:type="arc"
         style="opacity:1;fill:#b3b3b3;fill-opacity:1;fill-rule:nonzero;stroke:#ffffff;stroke-width:2.1875;stroke-linecap:round;stroke-linejoin:round;stroke-miterlimit:4;stroke-dasharray:none;stroke-dashoffset:0;stroke-opacity:1"
         id="path3233"
         sodipodi:cx="233.57143"
         sodipodi:cy="158.79076"
         sodipodi:rx="9.2857141"
         sodipodi:ry="9.2857141"
         d="M 242.85714,158.79076 A 9.2857141,9.2857141 0 1 1 224.28571,158.79076 A 9.2857141,9.2857141 0 1 1 242.85714,158.79076 z" />
      <path
         d="M 242.85714,158.79076 A 9.2857141,9.2857141 0 1 1 224.28571,158.79076 A 9.2857141,9.2857141 0 1 1 242.85714,158.79076 z"
         sodipodi:ry="9.2857141"
         sodipodi:rx="9.2857141"
         sodipodi:cy="158.79076"
         sodipodi:cx="233.57143"
         id="path3235"
         style="opacity:1;fill:#b3b3b3;fill-opacity:1;fill-rule:nonzero;stroke:#ffffff;stroke-width:2.1875;stroke-linecap:round;stroke-linejoin:round;stroke-miterlimit:4;stroke-dasharray:none;stroke-dashoffset:0;stroke-opacity:1"
         sodipodi:type="arc"
         transform="matrix(0.4571429,0,0,0.4571429,89.039621,91.602885)" />
      <path
         transform="matrix(0.4571429,0,0,0.4571429,101.94019,83.914633)"
         sodipodi:type="arc"
         style="opacity:1;fill:#b3b3b3;fill-opacity:1;fill-rule:nonzero;stroke:#ffffff;stroke-width:2.1875;stroke-linecap:round;stroke-linejoin:round;stroke-miterlimit:4;stroke-dasharray:none;stroke-dashoffset:0;stroke-opacity:1"
         id="path3237"
         sodipodi:cx="233.57143"
         sodipodi:cy="158.79076"
         sodipodi:rx="9.2857141"
         sodipodi:ry="9.2857141"
         d="M 242.85714,158.79076 A 9.2857141,9.2857141 0 1 1 224.28571,158.79076 A 9.2857141,9.2857141 0 1 1 242.85714,158.79076 z" />
      <path
         d="M 242.85714,158.79076 A 9.2857141,9.2857141 0 1 1 224.28571,158.79076 A 9.2857141,9.2857141 0 1 1 242.85714,158.79076 z"
         sodipodi:ry="9.2857141"
         sodipodi:rx="9.2857141"
         sodipodi:cy="158.79076"
         sodipodi:cx="233.57143"
         id="path3239"
         style="opacity:1;fill:#b3b3b3;fill-opacity:1;fill-rule:nonzero;stroke:#ffffff;stroke-width:2.1875;stroke-linecap:round;stroke-linejoin:round;stroke-miterlimit:4;stroke-dasharray:none;stroke-dashoffset:0;stroke-opacity:1"
         sodipodi:type="arc"
         transform="matrix(0.4571429,0,0,0.4571429,93.40305,83.936677)" />
      <path
         transform="matrix(0.4571429,0,0,0.4571429,97.743585,76.16989)"
         sodipodi:type="arc"
         style="opacity:1;fill:#b3b3b3;fill-opacity:1;fill-rule:nonzero;stroke:#ffffff;stroke-width:2.1875;stroke-linecap:round;stroke-linejoin:round;stroke-miterlimit:4;stroke-dasharray:none;stroke-dashoffset:0;stroke-opacity:1"
         id="path3241"
         sodipodi:cx="233.57143"
         sodipodi:cy="158.79076"
         sodipodi:rx="9.2857141"
         sodipodi:ry="9.2857141"
         d="M 242.85714,158.79076 A 9.2857141,9.2857141 0 1 1 224.28571,158.79076 A 9.2857141,9.2857141 0 1 1 242.85714,158.79076 z" />
      <text
         sodipodi:linespacing="100%"
         id="text3269"
         y="150.29399"
         x="185.39503"
         style="font-size:21.9312439px;font-style:normal;font-variant:normal;font-weight:normal;font-stretch:normal;text-align:start;line-height:100%;writing-mode:lr-tb;text-anchor:start;opacity:0.2;fill:#000000;fill-opacity:1;stroke:none;stroke-width:1px;stroke-linecap:butt;stroke-linejoin:miter;stroke-opacity:1;font-family:Georgia"
         xml:space="preserve"><tspan
           y="150.29399"
           x="185.39503"
           id="tspan3271"
           sodipodi:role="line">C</tspan></text>
    </g>
    <g
       id="g3302"
       inkscape:export-filename="/opt/lampp/htdocs/asamblea/salida.png"
       inkscape:export-xdpi="150"
       inkscape:export-ydpi="150">
      <path
         style="opacity:1;fill:#ff6600;fill-opacity:1;fill-rule:nonzero;stroke:none;stroke-width:1;stroke-linecap:round;stroke-linejoin:round;stroke-miterlimit:4;stroke-dasharray:none;stroke-dashoffset:0;stroke-opacity:1"
         d="M 250.86607,179.8211 L 250.86607,124.96396 L 305.72321,124.96396 L 305.72321,179.8211 L 289.06607,179.8211 L 289.06607,176.56396 L 302.45179,176.56396 L 302.45179,128.23539 L 254.12321,128.23539 L 254.12321,176.56396 L 268.16607,176.56396 L 268.16607,179.8211 L 250.86607,179.8211 z"
         id="path3199" />
      <path
         d="M 242.85714,158.79076 A 9.2857141,9.2857141 0 1 1 224.28571,158.79076 A 9.2857141,9.2857141 0 1 1 242.85714,158.79076 z"
         sodipodi:ry="9.2857141"
         sodipodi:rx="9.2857141"
         sodipodi:cy="158.79076"
         sodipodi:cx="233.57143"
         id="path3207"
         style="opacity:1;fill:#b3b3b3;fill-opacity:1;fill-rule:nonzero;stroke:#ffffff;stroke-width:2.1875;stroke-linecap:round;stroke-linejoin:round;stroke-miterlimit:4;stroke-dasharray:none;stroke-dashoffset:0;stroke-opacity:1"
         sodipodi:type="arc"
         transform="matrix(0.4571429,0,0,0.4571429,183.24466,90.485029)" />
      <path
         sodipodi:type="arc"
         style="opacity:1;fill:#b3b3b3;fill-opacity:1;fill-rule:nonzero;stroke:#ffffff;stroke-width:2.1875;stroke-linecap:round;stroke-linejoin:round;stroke-miterlimit:4;stroke-dasharray:none;stroke-dashoffset:0;stroke-opacity:1"
         id="path3243"
         sodipodi:cx="233.57143"
         sodipodi:cy="158.79076"
         sodipodi:rx="9.2857141"
         sodipodi:ry="9.2857141"
         d="M 242.85714,158.79076 A 9.2857141,9.2857141 0 1 1 224.28571,158.79076 A 9.2857141,9.2857141 0 1 1 242.85714,158.79076 z"
         transform="matrix(0.4571429,0,0,-0.4571429,157.77833,244.32732)" />
      <path
         d="M 242.85714,158.79076 A 9.2857141,9.2857141 0 1 1 224.28571,158.79076 A 9.2857141,9.2857141 0 1 1 242.85714,158.79076 z"
         sodipodi:ry="9.2857141"
         sodipodi:rx="9.2857141"
         sodipodi:cy="158.79076"
         sodipodi:cx="233.57143"
         id="path3245"
         style="opacity:1;fill:#b3b3b3;fill-opacity:1;fill-rule:nonzero;stroke:#ffffff;stroke-width:2.1875;stroke-linecap:round;stroke-linejoin:round;stroke-miterlimit:4;stroke-dasharray:none;stroke-dashoffset:0;stroke-opacity:1"
         sodipodi:type="arc"
         transform="matrix(0.4571429,0,0,-0.4571429,165.67722,241.29371)" />
      <path
         transform="matrix(0.4571429,0,0,-0.4571429,184.59207,244.49607)"
         sodipodi:type="arc"
         style="opacity:1;fill:#b3b3b3;fill-opacity:1;fill-rule:nonzero;stroke:#ffffff;stroke-width:2.1875;stroke-linecap:round;stroke-linejoin:round;stroke-miterlimit:4;stroke-dasharray:none;stroke-dashoffset:0;stroke-opacity:1"
         id="path3247"
         sodipodi:cx="233.57143"
         sodipodi:cy="158.79076"
         sodipodi:rx="9.2857141"
         sodipodi:ry="9.2857141"
         d="M 242.85714,158.79076 A 9.2857141,9.2857141 0 1 1 224.28571,158.79076 A 9.2857141,9.2857141 0 1 1 242.85714,158.79076 z" />
      <path
         d="M 242.85714,158.79076 A 9.2857141,9.2857141 0 1 1 224.28571,158.79076 A 9.2857141,9.2857141 0 1 1 242.85714,158.79076 z"
         sodipodi:ry="9.2857141"
         sodipodi:rx="9.2857141"
         sodipodi:cy="158.79076"
         sodipodi:cx="233.57143"
         id="path3249"
         style="opacity:1;fill:#b3b3b3;fill-opacity:1;fill-rule:nonzero;stroke:#ffffff;stroke-width:2.1875;stroke-linecap:round;stroke-linejoin:round;stroke-miterlimit:4;stroke-dasharray:none;stroke-dashoffset:0;stroke-opacity:1"
         sodipodi:type="arc"
         transform="matrix(0.4571429,0,0,-0.4571429,177.54774,229.1864)" />
      <path
         d="M 242.85714,158.79076 A 9.2857141,9.2857141 0 1 1 224.28571,158.79076 A 9.2857141,9.2857141 0 1 1 242.85714,158.79076 z"
         sodipodi:ry="9.2857141"
         sodipodi:rx="9.2857141"
         sodipodi:cy="158.79076"
         sodipodi:cx="233.57143"
         id="path3251"
         style="opacity:1;fill:#b3b3b3;fill-opacity:1;fill-rule:nonzero;stroke:#ffffff;stroke-width:2.1875;stroke-linecap:round;stroke-linejoin:round;stroke-miterlimit:4;stroke-dasharray:none;stroke-dashoffset:0;stroke-opacity:1"
         sodipodi:type="arc"
         transform="matrix(0.4571429,0,0,-0.4571429,176.72137,241.33404)" />
      <path
         transform="matrix(0.4571429,0,0,-0.4571429,171.33011,247.66627)"
         sodipodi:type="arc"
         style="opacity:1;fill:#b3b3b3;fill-opacity:1;fill-rule:nonzero;stroke:#ffffff;stroke-width:2.1875;stroke-linecap:round;stroke-linejoin:round;stroke-miterlimit:4;stroke-dasharray:none;stroke-dashoffset:0;stroke-opacity:1"
         id="path3253"
         sodipodi:cx="233.57143"
         sodipodi:cy="158.79076"
         sodipodi:rx="9.2857141"
         sodipodi:ry="9.2857141"
         d="M 242.85714,158.79076 A 9.2857141,9.2857141 0 1 1 224.28571,158.79076 A 9.2857141,9.2857141 0 1 1 242.85714,158.79076 z" />
      <path
         d="M 242.85714,158.79076 A 9.2857141,9.2857141 0 1 1 224.28571,158.79076 A 9.2857141,9.2857141 0 1 1 242.85714,158.79076 z"
         sodipodi:ry="9.2857141"
         sodipodi:rx="9.2857141"
         sodipodi:cy="158.79076"
         sodipodi:cx="233.57143"
         id="path3255"
         style="opacity:1;fill:#b3b3b3;fill-opacity:1;fill-rule:nonzero;stroke:#ffffff;stroke-width:2.1875;stroke-linecap:round;stroke-linejoin:round;stroke-miterlimit:4;stroke-dasharray:none;stroke-dashoffset:0;stroke-opacity:1"
         sodipodi:type="arc"
         transform="matrix(0.4571429,0,0,-0.4571429,164.84211,229.61719)" />
      <path
         transform="matrix(0.4571429,0,0,-0.4571429,159.13881,235.86151)"
         sodipodi:type="arc"
         style="opacity:1;fill:#b3b3b3;fill-opacity:1;fill-rule:nonzero;stroke:#ffffff;stroke-width:2.1875;stroke-linecap:round;stroke-linejoin:round;stroke-miterlimit:4;stroke-dasharray:none;stroke-dashoffset:0;stroke-opacity:1"
         id="path3257"
         sodipodi:cx="233.57143"
         sodipodi:cy="158.79076"
         sodipodi:rx="9.2857141"
         sodipodi:ry="9.2857141"
         d="M 242.85714,158.79076 A 9.2857141,9.2857141 0 1 1 224.28571,158.79076 A 9.2857141,9.2857141 0 1 1 242.85714,158.79076 z" />
      <path
         d="M 242.85714,158.79076 A 9.2857141,9.2857141 0 1 1 224.28571,158.79076 A 9.2857141,9.2857141 0 1 1 242.85714,158.79076 z"
         sodipodi:ry="9.2857141"
         sodipodi:rx="9.2857141"
         sodipodi:cy="158.79076"
         sodipodi:cx="233.57143"
         id="path3259"
         style="opacity:1;fill:#b3b3b3;fill-opacity:1;fill-rule:nonzero;stroke:#ffffff;stroke-width:2.1875;stroke-linecap:round;stroke-linejoin:round;stroke-miterlimit:4;stroke-dasharray:none;stroke-dashoffset:0;stroke-opacity:1"
         sodipodi:type="arc"
         transform="matrix(0.4571429,0,0,-0.4571429,171.13285,234.8943)" />
      <text
         xml:space="preserve"
         style="font-size:21.9312439px;font-style:normal;font-variant:normal;font-weight:normal;font-stretch:normal;text-align:start;line-height:100%;writing-mode:lr-tb;text-anchor:start;opacity:0.2;fill:#000000;fill-opacity:1;stroke:none;stroke-width:1px;stroke-linecap:butt;stroke-linejoin:miter;stroke-opacity:1;font-family:Georgia"
         x="258.22705"
         y="150.64738"
         id="text3273"
         sodipodi:linespacing="100%"><tspan
           sodipodi:role="line"
           id="tspan3275"
           x="258.22705"
           y="150.64738">D</tspan></text>
    </g>
  </g>
</svg>
