<?xml version="1.0" encoding="UTF-8" standalone="no"?>
<!-- Created with Inkscape (http://www.inkscape.org/) -->
<svg
   xmlns:dc="http://purl.org/dc/elements/1.1/"
   xmlns:cc="http://creativecommons.org/ns#"
   xmlns:rdf="http://www.w3.org/1999/02/22-rdf-syntax-ns#"
   xmlns:svg="http://www.w3.org/2000/svg"
   xmlns="http://www.w3.org/2000/svg"
   xmlns:xlink="http://www.w3.org/1999/xlink"
   xmlns:sodipodi="http://sodipodi.sourceforge.net/DTD/sodipodi-0.dtd"
   xmlns:inkscape="http://www.inkscape.org/namespaces/inkscape"
   width="40"
   height="40"
   id="svg2"
   sodipodi:version="0.32"
   inkscape:version="0.46"
   version="1.0"
   sodipodi:docname="iconoAsamblea.svg"
   inkscape:output_extension="org.inkscape.output.svg.inkscape"
   inkscape:export-filename="/opt/lampp/htdocs/asamblea/iconoAsamblea.png"
   inkscape:export-xdpi="150.75"
   inkscape:export-ydpi="150.75">
  <defs
     id="defs4">
    <linearGradient
       id="linearGradient3357">
      <stop
         style="stop-color:#84b6ff;stop-opacity:1;"
         offset="0"
         id="stop3359" />
      <stop
         style="stop-color:#e9f2ff;stop-opacity:1;"
         offset="1"
         id="stop3361" />
    </linearGradient>
    <inkscape:perspective
       sodipodi:type="inkscape:persp3d"
       inkscape:vp_x="0 : 526.18109 : 1"
       inkscape:vp_y="0 : 1000 : 0"
       inkscape:vp_z="744.09448 : 526.18109 : 1"
       inkscape:persp3d-origin="372.04724 : 350.78739 : 1"
       id="perspective10" />
    <clipPath
       clipPathUnits="userSpaceOnUse"
       id="clipPath3353">
      <rect
         style="opacity:1;fill:#ffffff;fill-opacity:1;fill-rule:nonzero;stroke:none;stroke-width:0.40000001;stroke-linecap:round;stroke-linejoin:round;stroke-miterlimit:4;stroke-dasharray:none;stroke-dashoffset:0;stroke-opacity:1"
         id="rect3355"
         width="40"
         height="40"
         x="0"
         y="0" />
    </clipPath>
    <linearGradient
       inkscape:collect="always"
       xlink:href="#linearGradient3357"
       id="linearGradient3363"
       x1="35.820896"
       y1="8.6841183"
       x2="35.820896"
       y2="14.792704"
       gradientUnits="userSpaceOnUse" />
  </defs>
  <sodipodi:namedview
     id="base"
     pagecolor="#ffffff"
     bordercolor="#666666"
     borderopacity="1.0"
     inkscape:pageopacity="0.0"
     inkscape:pageshadow="2"
     inkscape:zoom="3.76875"
     inkscape:cx="28.478102"
     inkscape:cy="21.523485"
     inkscape:document-units="px"
     inkscape:current-layer="layer1"
     showgrid="false"
     inkscape:showpageshadow="false"
     inkscape:window-width="1263"
     inkscape:window-height="777"
     inkscape:window-x="0"
     inkscape:window-y="22" />
  <metadata
     id="metadata7">
    <rdf:RDF>
      <cc:Work
         rdf:about="">
        <dc:format>image/svg+xml</dc:format>
        <dc:type
           rdf:resource="http://purl.org/dc/dcmitype/StillImage" />
      </cc:Work>
    </rdf:RDF>
  </metadata>
  <g
     inkscape:label="Capa 1"
     inkscape:groupmode="layer"
     id="layer1">
    <rect
       style="opacity:1;fill:url(#linearGradient3363);fill-opacity:1;fill-rule:nonzero;stroke:none;stroke-width:0.40000001000000002;stroke-linecap:round;stroke-linejoin:round;stroke-miterlimit:4;stroke-dasharray:none;stroke-dashoffset:0;stroke-opacity:1"
       id="rect3331"
       width="40"
       height="40"
       x="0"
       y="0" />
    <g
       id="g3333"
       clip-path="url(#clipPath3353)">
      <path
         id="path3267"
         style="fill:#ffffff;fill-opacity:1;fill-rule:nonzero;stroke:#9f9f9f;stroke-width:0.40000001;stroke-linecap:round;stroke-linejoin:round;stroke-miterlimit:4;stroke-dasharray:none;stroke-dashoffset:0;stroke-opacity:1"
         d="M 5.7093787,16.060131 C 4.6444209,16.060131 3.8001356,16.904418 3.8001358,17.969374 C 3.8001358,19.034331 4.6444204,19.878616 5.7093787,19.878616 C 6.7743374,19.878616 7.6186216,19.034332 7.6186216,17.969374 C 7.6186216,16.904416 6.7743376,16.060132 5.7093787,16.060131 z M 11.43711,16.060131 C 10.37215,16.060131 9.5278643,16.904418 9.5278643,17.969374 C 9.5278643,19.034331 10.37215,19.878616 11.43711,19.878616 C 12.502066,19.878616 13.346351,19.034334 13.346351,17.969374 C 13.346351,16.904416 12.502066,16.060132 11.43711,16.060131 z M 17.164837,16.060131 C 16.099879,16.060131 15.255594,16.904418 15.255594,17.969374 C 15.255594,19.034331 16.099881,19.878616 17.164837,19.878616 C 18.229796,19.878616 19.074081,19.034334 19.074081,17.969374 C 19.074081,16.904415 18.229797,16.060132 17.164837,16.060131 z M 22.892567,16.060131 C 21.827607,16.060131 20.983323,16.904418 20.983323,17.969374 C 20.983323,19.034331 21.827608,19.878616 22.892567,19.878616 C 23.957525,19.878616 24.80181,19.034332 24.80181,17.969374 C 24.80181,16.904416 23.957525,16.060132 22.892567,16.060131 z M 28.620297,16.060131 C 27.555337,16.060131 26.711052,16.904418 26.711052,17.969374 C 26.711052,19.034331 27.555338,19.878616 28.620297,19.878616 C 29.685256,19.878616 30.52954,19.034332 30.52954,17.969374 C 30.52954,16.904416 29.685256,16.060132 28.620297,16.060131 z M 34.348026,16.060131 C 33.283066,16.060131 32.438782,16.904418 32.438782,17.969374 C 32.438782,19.034331 33.283068,19.878616 34.348026,19.878616 C 35.412985,19.878616 36.257269,19.034331 36.257269,17.969374 C 36.257269,16.904416 35.412985,16.060132 34.348026,16.060131 z M 4.3893038,19.855614 L 6.9222961,19.855614 C 7.4836073,19.855614 7.9354932,20.3075 7.9354932,20.868808 L 7.9354932,24.604974 C 7.9354932,25.166284 7.4836073,25.618169 6.9222961,25.618169 L 4.3893038,25.618169 C 3.8279927,25.618169 3.3761067,25.166284 3.3761067,24.604974 L 3.3761067,20.868808 C 3.3761067,20.3075 3.8279927,19.855614 4.3893038,19.855614 z M 10.117033,19.855614 L 12.650026,19.855614 C 13.211336,19.855614 13.663221,20.3075 13.663221,20.868808 L 13.663221,24.604974 C 13.663221,25.166284 13.211336,25.618169 12.650026,25.618169 L 10.117033,25.618169 C 9.555723,25.618169 9.1038359,25.166284 9.1038359,24.604974 L 9.1038359,20.868808 C 9.1038359,20.3075 9.555723,19.855614 10.117033,19.855614 z M 15.844763,19.855614 L 18.377753,19.855614 C 18.939066,19.855614 19.390951,20.3075 19.390951,20.868808 L 19.390951,24.604974 C 19.390951,25.166284 18.939066,25.618169 18.377753,25.618169 L 15.844763,25.618169 C 15.283451,25.618169 14.831565,25.166284 14.831565,24.604974 L 14.831565,20.868808 C 14.831565,20.3075 15.283451,19.855614 15.844763,19.855614 z M 21.572493,19.855614 L 24.105483,19.855614 C 24.666795,19.855614 25.118682,20.3075 25.118682,20.868808 L 25.118682,24.604974 C 25.118682,25.166284 24.666795,25.618169 24.105483,25.618169 L 21.572493,25.618169 C 21.01118,25.618169 20.559294,25.166284 20.559294,24.604974 L 20.559294,20.868808 C 20.559294,20.3075 21.01118,19.855614 21.572493,19.855614 z M 27.300222,19.855614 L 29.833212,19.855614 C 30.394526,19.855614 30.846411,20.3075 30.846411,20.868808 L 30.846411,24.604974 C 30.846411,25.166284 30.394526,25.618169 29.833212,25.618169 L 27.300222,25.618169 C 26.738909,25.618169 26.287024,25.166284 26.287024,24.604974 L 26.287024,20.868808 C 26.287024,20.3075 26.738909,19.855614 27.300222,19.855614 z M 33.027953,19.855614 L 35.560944,19.855614 C 36.122255,19.855614 36.574141,20.3075 36.574141,20.868808 L 36.574141,24.604974 C 36.574141,25.166284 36.122255,25.618169 35.560944,25.618169 L 33.027953,25.618169 C 32.466643,25.618169 32.014757,25.166284 32.014757,24.604974 L 32.014757,20.868808 C 32.014757,20.3075 32.466643,19.855614 33.027953,19.855614 z" />
      <path
         d="M 3.4168298,20.318723 C 2.1807298,20.318723 1.2007654,21.298688 1.2007655,22.534786 C 1.2007655,23.770887 2.1807293,24.75085 3.4168298,24.75085 C 4.6529307,24.75085 5.6328942,23.770887 5.6328941,22.534786 C 5.6328941,21.298686 4.6529307,20.318724 3.4168298,20.318723 z M 10.065024,20.318723 C 8.8289226,20.318723 7.8489578,21.298688 7.8489578,22.534786 C 7.8489578,23.770887 8.8289226,24.75085 10.065024,24.75085 C 11.301124,24.75085 12.281086,23.770889 12.281086,22.534786 C 12.281086,21.298686 11.301124,20.318724 10.065024,20.318723 z M 16.713215,20.318723 C 15.477116,20.318723 14.497151,21.298688 14.497151,22.534786 C 14.497151,23.770887 15.477117,24.75085 16.713215,24.75085 C 17.949317,24.75085 18.92928,23.770889 18.92928,22.534786 C 18.92928,21.298685 17.949318,20.318724 16.713215,20.318723 z M 23.361409,20.318723 C 22.125307,20.318723 21.145344,21.298688 21.145344,22.534786 C 21.145344,23.770887 22.125309,24.75085 23.361409,24.75085 C 24.59751,24.75085 25.577473,23.770887 25.577473,22.534786 C 25.577473,21.298686 24.59751,20.318724 23.361409,20.318723 z M 30.009602,20.318723 C 28.773501,20.318723 27.793537,21.298688 27.793537,22.534786 C 27.793537,23.770887 28.773502,24.75085 30.009602,24.75085 C 31.245703,24.75085 32.225666,23.770887 32.225666,22.534786 C 32.225666,21.298686 31.245704,20.318724 30.009602,20.318723 z M 36.657795,20.318723 C 35.421694,20.318723 34.44173,21.298688 34.44173,22.534786 C 34.44173,23.770887 35.421695,24.75085 36.657795,24.75085 C 37.893896,24.75085 38.873861,23.770887 38.873859,22.534786 C 38.873859,21.298686 37.893898,20.318724 36.657795,20.318723 z M 1.8846148,24.724151 L 4.8246667,24.724151 C 5.4761823,24.724151 6.0006876,25.248656 6.0006876,25.900169 L 6.0006876,30.236748 C 6.0006876,30.888261 5.4761823,31.412768 4.8246667,31.412768 L 1.8846148,31.412768 C 1.2330992,31.412768 0.70859379,30.888261 0.70859379,30.236748 L 0.70859379,25.900169 C 0.70859379,25.248656 1.2330992,24.724151 1.8846148,24.724151 z M 8.5328072,24.724151 L 11.47286,24.724151 C 12.124375,24.724151 12.64888,25.248656 12.64888,25.900169 L 12.64888,30.236748 C 12.64888,30.888261 12.124375,31.412768 11.47286,31.412768 L 8.5328072,31.412768 C 7.8812926,31.412768 7.3567867,30.888261 7.3567867,30.236748 L 7.3567867,25.900169 C 7.3567867,25.248656 7.8812926,24.724151 8.5328072,24.724151 z M 15.181001,24.724151 L 18.121052,24.724151 C 18.772568,24.724151 19.297072,25.248656 19.297072,25.900169 L 19.297072,30.236748 C 19.297072,30.888261 18.772568,31.412768 18.121052,31.412768 L 15.181001,31.412768 C 14.529484,31.412768 14.00498,30.888261 14.00498,30.236748 L 14.00498,25.900169 C 14.00498,25.248656 14.529484,24.724151 15.181001,24.724151 z M 21.829195,24.724151 L 24.769245,24.724151 C 25.420761,24.724151 25.945267,25.248656 25.945267,25.900169 L 25.945267,30.236748 C 25.945267,30.888261 25.420761,31.412768 24.769245,31.412768 L 21.829195,31.412768 C 21.177677,31.412768 20.653173,30.888261 20.653173,30.236748 L 20.653173,25.900169 C 20.653173,25.248656 21.177677,24.724151 21.829195,24.724151 z M 28.477388,24.724151 L 31.417438,24.724151 C 32.068955,24.724151 32.59346,25.248656 32.59346,25.900169 L 32.59346,30.236748 C 32.59346,30.888261 32.068955,31.412768 31.417438,31.412768 L 28.477388,31.412768 C 27.82587,31.412768 27.301366,30.888261 27.301366,30.236748 L 27.301366,25.900169 C 27.301366,25.248656 27.82587,24.724151 28.477388,24.724151 z M 35.125582,24.724151 L 38.065634,24.724151 C 38.717149,24.724151 39.241655,25.248656 39.241655,25.900169 L 39.241655,30.236748 C 39.241655,30.888261 38.717149,31.412768 38.065634,31.412768 L 35.125582,31.412768 C 34.474067,31.412768 33.949563,30.888261 33.949563,30.236748 L 33.949563,25.900169 C 33.949563,25.248656 34.474067,24.724151 35.125582,24.724151 z"
         style="fill:#ffffff;fill-opacity:1;fill-rule:nonzero;stroke:#9f9f9f;stroke-width:0.40000001;stroke-linecap:round;stroke-linejoin:round;stroke-miterlimit:4;stroke-dasharray:none;stroke-dashoffset:0;stroke-opacity:1"
         id="path3262" />
      <path
         sodipodi:nodetypes="cccccscccccccccccccccccsssc"
         id="path3299"
         d="M 19.142438,20.360126 C 19.056758,20.384064 19.007782,20.458146 19.024627,20.595748 L 19.731492,25.111829 C 19.456285,26.039781 18.479866,26.622923 17.846519,27.075343 L 16.786221,27.075343 C 16.621038,27.108597 16.451614,27.114613 16.275708,27.114613 C 16.099803,27.114613 15.930377,27.108597 15.765194,27.075343 L 14.508546,27.075343 C 13.766824,27.075343 13.173356,27.668814 13.173356,28.410532 L 13.173356,35.871884 C 13.173356,36.613602 13.766824,37.207074 14.508546,37.207074 L 17.846519,37.207074 C 18.588239,37.207074 19.220979,36.613601 19.220979,35.871884 L 19.220979,29.5101 C 19.221748,28.025913 20.191208,27.724898 21.145222,25.347451 L 20.752519,22.834153 C 20.749795,22.693804 20.780771,22.683909 20.752519,22.441451 L 20.634708,21.459694 C 20.476841,21.097123 20.178697,21.076417 19.53514,21.341883 L 19.378059,20.517207 C 19.3393,20.377636 19.228117,20.336188 19.142438,20.360126 z M 15.765194,27.075343 L 16.786221,27.075343 C 17.942506,26.842562 18.789005,25.832655 18.789005,24.601315 C 18.789004,23.194072 17.682954,22.048749 16.275708,22.048748 C 14.868464,22.048748 13.72314,23.194076 13.72314,24.601315 C 13.72314,25.832653 14.608912,26.842562 15.765194,27.075343 z"
         style="fill:#333333;fill-opacity:1;fill-rule:nonzero;stroke:none;stroke-width:0.5;stroke-linecap:round;stroke-linejoin:round;stroke-miterlimit:4;stroke-dashoffset:0;stroke-opacity:1" />
      <path
         id="path3295"
         d="M 1.1173823,24.562043 C -0.2898594,24.562043 -1.3959152,25.707371 -1.395915,27.114611 C -1.3959152,28.345949 -0.54941476,29.355857 0.60686882,29.588638 L 1.6278959,29.588638 C 2.7841798,29.355857 3.63068,28.345949 3.6306797,27.114611 C 3.63068,25.707369 2.5246256,24.562044 1.1173823,24.562043 z"
         style="fill:#ffffff;fill-opacity:1;fill-rule:nonzero;stroke:#9f9f9f;stroke-width:0.40000001;stroke-linecap:round;stroke-linejoin:round;stroke-miterlimit:4;stroke-dasharray:none;stroke-dashoffset:0;stroke-opacity:1" />
      <path
         id="path3293"
         d="M 1.6278959,29.588638 C 1.4627124,29.621892 1.2932877,29.627909 1.1173823,29.627909 C 0.94147705,29.627909 0.77205216,29.621892 0.60686882,29.588638 L -0.61050961,29.588638 C -1.3522295,29.588638 -1.945699,30.182109 -1.9456988,30.923827 L -1.9456988,35.871882 C -1.9456988,36.6136 -1.3522295,37.20707 -0.61050961,37.20707 L 2.7274634,37.20707 C 3.4691835,37.20707 4.0626528,36.613598 4.0626527,35.871882 L 4.0626527,30.923827 C 4.0626527,30.182109 3.4691833,29.588638 2.7274634,29.588638 L 1.6278959,29.588638 z"
         style="fill:#ffffff;fill-opacity:1;fill-rule:nonzero;stroke:#9f9f9f;stroke-width:0.40000001;stroke-linecap:round;stroke-linejoin:round;stroke-miterlimit:4;stroke-dasharray:none;stroke-dashoffset:0;stroke-opacity:1" />
      <path
         id="path3291"
         d="M 8.6965447,24.562043 C 7.2893019,24.562043 6.1832471,25.707371 6.1832474,27.114611 C 6.1832478,28.345949 7.0297471,29.355857 8.1860312,29.588638 L 9.2070583,29.588638 C 10.363342,29.355857 11.209842,28.345951 11.209842,27.114611 C 11.209842,25.707369 10.103788,24.562044 8.6965447,24.562043 z"
         style="fill:#ffffff;fill-opacity:1;fill-rule:nonzero;stroke:#9f9f9f;stroke-width:0.40000001;stroke-linecap:round;stroke-linejoin:round;stroke-miterlimit:4;stroke-dasharray:none;stroke-dashoffset:0;stroke-opacity:1" />
      <path
         id="path3289"
         d="M 9.2070583,29.588638 C 9.0418743,29.621892 8.8724504,29.627909 8.6965447,29.627909 C 8.520639,29.627909 8.3512151,29.621892 8.1860312,29.588638 L 6.9293825,29.588638 C 6.1876628,29.588638 5.5941936,30.182109 5.5941933,30.923827 L 5.5941933,35.871882 C 5.5941933,36.6136 6.1876623,37.20707 6.9293825,37.20707 L 10.306626,37.20707 C 11.048344,37.20707 11.641815,36.613598 11.641815,35.871882 L 11.641815,30.923827 C 11.641815,30.182109 11.048344,29.588638 10.306626,29.588638 L 9.2070583,29.588638 z"
         style="fill:#ffffff;fill-opacity:1;fill-rule:nonzero;stroke:#9f9f9f;stroke-width:0.40000001;stroke-linecap:round;stroke-linejoin:round;stroke-miterlimit:4;stroke-dasharray:none;stroke-dashoffset:0;stroke-opacity:1" />
      <path
         id="path3287"
         d="M 23.8156,24.562043 C 22.408355,24.562043 21.302302,25.707371 21.302302,27.114611 C 21.302303,28.345949 22.148803,29.355857 23.305086,29.588638 L 24.326113,29.588638 C 25.482396,29.355857 26.368167,28.345949 26.368167,27.114611 C 26.368167,25.707369 25.222844,24.562044 23.8156,24.562043 z"
         style="fill:#ffffff;fill-opacity:1;fill-rule:nonzero;stroke:#9f9f9f;stroke-width:0.40000001;stroke-linecap:round;stroke-linejoin:round;stroke-miterlimit:4;stroke-dasharray:none;stroke-dashoffset:0;stroke-opacity:1" />
      <path
         id="path3285"
         d="M 24.326113,29.588638 C 24.160929,29.621892 23.991505,29.627909 23.8156,29.627909 C 23.639693,29.627909 23.470269,29.621892 23.305086,29.588638 L 22.087708,29.588638 C 21.345986,29.588638 20.752518,30.182109 20.752518,30.923827 L 20.752518,35.871882 C 20.752518,36.6136 21.345984,37.20707 22.087708,37.20707 L 25.425681,37.20707 C 26.167399,37.20707 26.760871,36.613598 26.760869,35.871882 L 26.760869,30.923827 C 26.760869,30.182109 26.167399,29.588638 25.425681,29.588638 L 24.326113,29.588638 z"
         style="fill:#ffffff;fill-opacity:1;fill-rule:nonzero;stroke:#9f9f9f;stroke-width:0.40000001;stroke-linecap:round;stroke-linejoin:round;stroke-miterlimit:4;stroke-dasharray:none;stroke-dashoffset:0;stroke-opacity:1" />
      <path
         id="path3283"
         d="M 31.394762,24.562043 C 29.987517,24.562043 28.881464,25.707371 28.881464,27.114611 C 28.881466,28.345949 29.727965,29.355857 30.884248,29.588638 L 31.905276,29.588638 C 33.061559,29.355857 33.908059,28.345949 33.908059,27.114611 C 33.908059,25.707369 32.802006,24.562044 31.394762,24.562043 z"
         style="fill:#ffffff;fill-opacity:1;fill-rule:nonzero;stroke:#9f9f9f;stroke-width:0.40000001;stroke-linecap:round;stroke-linejoin:round;stroke-miterlimit:4;stroke-dasharray:none;stroke-dashoffset:0;stroke-opacity:1" />
      <path
         id="path3281"
         d="M 31.905276,29.588638 C 31.740091,29.621892 31.570667,29.627909 31.394762,29.627909 C 31.218856,29.627909 31.049431,29.621892 30.884248,29.588638 L 29.66687,29.588638 C 28.925148,29.588638 28.331681,30.182109 28.331681,30.923827 L 28.331681,35.871882 C 28.331681,36.6136 28.925149,37.20707 29.66687,37.20707 L 33.004842,37.20707 C 33.746564,37.20707 34.340032,36.613598 34.340032,35.871882 L 34.340032,30.923827 C 34.340032,30.182109 33.746562,29.588638 33.004842,29.588638 L 31.905276,29.588638 z"
         style="fill:#ffffff;fill-opacity:1;fill-rule:nonzero;stroke:#9f9f9f;stroke-width:0.40000001;stroke-linecap:round;stroke-linejoin:round;stroke-miterlimit:4;stroke-dasharray:none;stroke-dashoffset:0;stroke-opacity:1" />
      <path
         id="path3279"
         d="M 38.973924,24.562043 C 37.566682,24.562043 36.460626,25.707371 36.460626,27.114611 C 36.460626,28.345949 37.307128,29.355857 38.46341,29.588638 L 39.484438,29.588638 C 40.640723,29.355857 41.487223,28.345949 41.487222,27.114611 C 41.487224,25.707369 40.381169,24.562044 38.973924,24.562043 z"
         style="fill:#ffffff;fill-opacity:1;fill-rule:nonzero;stroke:#9f9f9f;stroke-width:0.40000001;stroke-linecap:round;stroke-linejoin:round;stroke-miterlimit:4;stroke-dasharray:none;stroke-dashoffset:0;stroke-opacity:1" />
      <path
         id="path3260"
         d="M 39.484438,29.588638 C 39.319254,29.621892 39.14983,29.627909 38.973924,29.627909 C 38.798018,29.627909 38.628594,29.621892 38.46341,29.588638 L 37.206762,29.588638 C 36.465043,29.588638 35.871574,30.182109 35.871573,30.923827 L 35.871573,35.871882 C 35.871573,36.6136 36.465045,37.20707 37.206762,37.20707 L 40.584005,37.20707 C 41.325724,37.20707 41.919196,36.613598 41.919194,35.871882 L 41.919194,30.923827 C 41.919194,30.182109 41.325724,29.588638 40.584005,29.588638 L 39.484438,29.588638 z"
         style="fill:#ffffff;fill-opacity:1;fill-rule:nonzero;stroke:#9f9f9f;stroke-width:0.40000001;stroke-linecap:round;stroke-linejoin:round;stroke-miterlimit:4;stroke-dasharray:none;stroke-dashoffset:0;stroke-opacity:1" />
      <path
         d="M -0.59513101,29.027906 C -2.1307296,29.027906 -3.3481326,30.245311 -3.3481325,31.780907 C -3.3481325,33.316507 -2.1307301,34.533908 -0.59513101,34.533908 C 0.94046853,34.533908 2.1578706,33.316508 2.1578704,31.780907 C 2.1578704,30.245309 0.94046886,29.027907 -0.59513101,29.027906 z M 7.6638736,29.027906 C 6.1282754,29.027906 4.9108716,30.245311 4.9108718,31.780907 C 4.9108718,33.316507 6.1282743,34.533908 7.6638736,34.533908 C 9.1994744,34.533908 10.416874,33.316509 10.416874,31.780907 C 10.416874,30.245309 9.1994744,29.027907 7.6638736,29.027906 z M 15.922878,29.027906 C 14.38728,29.027906 13.169876,30.245311 13.169876,31.780907 C 13.169876,33.316507 14.387281,34.533908 15.922878,34.533908 C 17.458479,34.533908 18.675879,33.316509 18.675879,31.780907 C 18.675879,30.245307 17.45848,29.027907 15.922878,29.027906 z M 24.181882,29.027906 C 22.646283,29.027906 21.42888,30.245311 21.42888,31.780907 C 21.42888,33.316507 22.646284,34.533908 24.181882,34.533908 C 25.717482,34.533908 26.934884,33.316508 26.934884,31.780907 C 26.934884,30.245309 25.717483,29.027907 24.181882,29.027906 z M 32.440887,29.027906 C 30.905287,29.027906 29.687885,30.245311 29.687885,31.780907 C 29.687885,33.316507 30.905288,34.533908 32.440887,34.533908 C 33.976486,34.533908 35.193889,33.316508 35.193889,31.780907 C 35.193889,30.245309 33.976487,29.027907 32.440887,29.027906 z M 40.699891,29.027906 C 39.164291,29.027906 37.946889,30.245311 37.946889,31.780907 C 37.946889,33.316507 39.164293,34.533908 40.699891,34.533908 C 42.235491,34.533908 43.452894,33.316507 43.452892,31.780907 C 43.452892,30.245309 42.235492,29.027907 40.699891,29.027906 z M -2.4985912,34.500739 L 1.1538151,34.500739 C 1.9631885,34.500739 2.6147777,35.152328 2.6147777,35.961701 L 2.6147777,41.349001 C 2.6147777,42.158374 1.9631885,42.809963 1.1538151,42.809963 L -2.4985912,42.809963 C -3.3079645,42.809963 -3.9595539,42.158374 -3.9595539,41.349001 L -3.9595539,35.961701 C -3.9595539,35.152328 -3.3079645,34.500739 -2.4985912,34.500739 z M 5.7604131,34.500739 L 9.4128194,34.500739 C 10.222192,34.500739 10.873782,35.152328 10.873782,35.961701 L 10.873782,41.349001 C 10.873782,42.158374 10.222192,42.809963 9.4128194,42.809963 L 5.7604131,42.809963 C 4.9510399,42.809963 4.2994504,42.158374 4.2994504,41.349001 L 4.2994504,35.961701 C 4.2994504,35.152328 4.9510399,34.500739 5.7604131,34.500739 z M 14.019418,34.500739 L 17.671824,34.500739 C 18.481196,34.500739 19.132786,35.152328 19.132786,35.961701 L 19.132786,41.349001 C 19.132786,42.158374 18.481196,42.809963 17.671824,42.809963 L 14.019418,42.809963 C 13.210044,42.809963 12.558455,42.158374 12.558455,41.349001 L 12.558455,35.961701 C 12.558455,35.152328 13.210044,34.500739 14.019418,34.500739 z M 22.278423,34.500739 L 25.930828,34.500739 C 26.7402,34.500739 27.391792,35.152328 27.391792,35.961701 L 27.391792,41.349001 C 27.391792,42.158374 26.7402,42.809963 25.930828,42.809963 L 22.278423,42.809963 C 21.469048,42.809963 20.81746,42.158374 20.81746,41.349001 L 20.81746,35.961701 C 20.81746,35.152328 21.469048,34.500739 22.278423,34.500739 z M 30.537427,34.500739 L 34.189832,34.500739 C 34.999206,34.500739 35.650796,35.152328 35.650796,35.961701 L 35.650796,41.349001 C 35.650796,42.158374 34.999206,42.809963 34.189832,42.809963 L 30.537427,42.809963 C 29.728052,42.809963 29.076463,42.158374 29.076463,41.349001 L 29.076463,35.961701 C 29.076463,35.152328 29.728052,34.500739 30.537427,34.500739 z M 38.796433,34.500739 L 42.44884,34.500739 C 43.258213,34.500739 43.909803,35.152328 43.909803,35.961701 L 43.909803,41.349001 C 43.909803,42.158374 43.258213,42.809963 42.44884,42.809963 L 38.796433,42.809963 C 37.98706,42.809963 37.335472,42.158374 37.335472,41.349001 L 37.335472,35.961701 C 37.335472,35.152328 37.98706,34.500739 38.796433,34.500739 z"
         style="fill:#ffffff;fill-opacity:1;fill-rule:nonzero;stroke:#9f9f9f;stroke-width:0.40000001;stroke-linecap:round;stroke-linejoin:round;stroke-miterlimit:4;stroke-dasharray:none;stroke-dashoffset:0;stroke-opacity:1"
         id="path2452" />
      <g
         transform="matrix(1.2566488,0,0,1.2566488,-5.1265913,-5.676066)"
         id="g3302"
         style="fill:#ffffff">
        <path
           id="path3269"
           style="fill:#ffffff;fill-opacity:1;fill-rule:nonzero;stroke:none;stroke-width:0.50000000000000000;stroke-linecap:round;stroke-linejoin:round;stroke-miterlimit:4;stroke-dashoffset:0;stroke-opacity:1"
           d="M 13.867876,11.054017 C 13.411961,11.054017 13.050517,11.415462 13.050517,11.871375 C 13.050517,12.32729 13.411961,12.688733 13.867876,12.688733 C 14.323791,12.688733 14.685234,12.32729 14.685234,11.871375 C 14.685234,11.41546 14.323791,11.054018 13.867876,11.054017 z M 16.319951,11.054017 C 15.864036,11.054017 15.502592,11.415462 15.502592,11.871375 C 15.502592,12.32729 15.864036,12.688733 16.319951,12.688733 C 16.775865,12.688733 17.137308,12.32729 17.137308,11.871375 C 17.137308,11.41546 16.775865,11.054018 16.319951,11.054017 z M 18.772025,11.054017 C 18.31611,11.054017 17.954667,11.415462 17.954667,11.871375 C 17.954667,12.32729 18.316111,12.688733 18.772025,12.688733 C 19.22794,12.688733 19.589383,12.32729 19.589383,11.871375 C 19.589383,11.41546 19.22794,11.054018 18.772025,11.054017 z M 21.2241,11.054017 C 20.768184,11.054017 20.406741,11.415462 20.406741,11.871375 C 20.406741,12.32729 20.768185,12.688733 21.2241,12.688733 C 21.680014,12.688733 22.041458,12.32729 22.041458,11.871375 C 22.041458,11.41546 21.680014,11.054018 21.2241,11.054017 z M 23.676174,11.054017 C 23.220259,11.054017 22.858816,11.415462 22.858816,11.871375 C 22.858816,12.32729 23.220259,12.688733 23.676174,12.688733 C 24.132089,12.688733 24.493533,12.32729 24.493533,11.871375 C 24.493533,11.41546 24.132089,11.054018 23.676174,11.054017 z M 26.128248,11.054017 C 25.672333,11.054017 25.31089,11.415462 25.31089,11.871375 C 25.31089,12.32729 25.672334,12.688733 26.128248,12.688733 C 26.584164,12.688733 26.945608,12.32729 26.945608,11.871375 C 26.945608,11.41546 26.584164,11.054018 26.128248,11.054017 z M 13.302744,12.678886 L 14.387133,12.678886 C 14.627434,12.678886 14.820889,12.872341 14.820889,13.11264 L 14.820889,14.712115 C 14.820889,14.952415 14.627434,15.14587 14.387133,15.14587 L 13.302744,15.14587 C 13.062443,15.14587 12.868989,14.952415 12.868989,14.712115 L 12.868989,13.11264 C 12.868989,12.872341 13.062443,12.678886 13.302744,12.678886 z M 15.754818,12.678886 L 16.839208,12.678886 C 17.079508,12.678886 17.272962,12.872341 17.272962,13.11264 L 17.272962,14.712115 C 17.272962,14.952415 17.079508,15.14587 16.839208,15.14587 L 15.754818,15.14587 C 15.514518,15.14587 15.321063,14.952415 15.321063,14.712115 L 15.321063,13.11264 C 15.321063,12.872341 15.514518,12.678886 15.754818,12.678886 z M 18.206893,12.678886 L 19.291282,12.678886 C 19.531583,12.678886 19.725037,12.872341 19.725037,13.11264 L 19.725037,14.712115 C 19.725037,14.952415 19.531583,15.14587 19.291282,15.14587 L 18.206893,15.14587 C 17.966592,15.14587 17.773137,14.952415 17.773137,14.712115 L 17.773137,13.11264 C 17.773137,12.872341 17.966592,12.678886 18.206893,12.678886 z M 20.658968,12.678886 L 21.743356,12.678886 C 21.983657,12.678886 22.177112,12.872341 22.177112,13.11264 L 22.177112,14.712115 C 22.177112,14.952415 21.983657,15.14587 21.743356,15.14587 L 20.658968,15.14587 C 20.418667,15.14587 20.225212,14.952415 20.225212,14.712115 L 20.225212,13.11264 C 20.225212,12.872341 20.418667,12.678886 20.658968,12.678886 z M 23.111043,12.678886 L 24.195431,12.678886 C 24.435732,12.678886 24.629186,12.872341 24.629186,13.11264 L 24.629186,14.712115 C 24.629186,14.952415 24.435732,15.14587 24.195431,15.14587 L 23.111043,15.14587 C 22.870741,15.14587 22.677286,14.952415 22.677286,14.712115 L 22.677286,13.11264 C 22.677286,12.872341 22.870741,12.678886 23.111043,12.678886 z M 25.563118,12.678886 L 26.647506,12.678886 C 26.887807,12.678886 27.081262,12.872341 27.081262,13.11264 L 27.081262,14.712115 C 27.081262,14.952415 26.887807,15.14587 26.647506,15.14587 L 25.563118,15.14587 C 25.322818,15.14587 25.129363,14.952415 25.129363,14.712115 L 25.129363,13.11264 C 25.129363,12.872341 25.322818,12.678886 25.563118,12.678886 z" />
        <path
           style="opacity:1;fill:#ffffff;fill-opacity:1;fill-rule:nonzero;stroke:none;stroke-width:0.50000000000000000;stroke-linecap:round;stroke-linejoin:round;stroke-miterlimit:4;stroke-dasharray:none;stroke-dashoffset:0;stroke-opacity:1"
           d="M 9.9375,13.59375 L 9.9375,15.0625 L 11.15625,15.0625 L 11.15625,17.0625 C 17.037952,15.542021 22.899547,15.756073 28.78125,17.0625 L 28.78125,15.0625 L 29.96875,15.0625 L 29.96875,13.59375 L 28.78125,13.59375 L 11.15625,13.59375 L 9.9375,13.59375 z"
           id="rect3271" />
      </g>
      <path
         id="path3306"
         d="M 15.058329,1.0784213 C 12.378014,1.0784213 10.188815,2.4064365 10.188815,4.0629621 C 10.188815,5.7194877 12.378014,7.086773 15.058329,7.086773 C 15.567958,7.086773 16.049695,7.019804 16.51133,6.929692 C 16.875316,7.560388 17.356867,8.008937 18.04287,8.225611 C 17.613011,7.664658 17.635227,7.137214 17.767978,6.57626 C 17.768507,6.574022 17.806716,6.578497 17.807249,6.57626 C 19.080489,6.035094 19.888573,5.0895001 19.888573,4.0629621 C 19.888573,2.4064365 17.738645,1.0784213 15.058329,1.0784213 z"
         style="opacity:1;fill:#ffffff;fill-opacity:1;fill-rule:nonzero;stroke:none;stroke-width:0.50000000000000000;stroke-linecap:round;stroke-linejoin:round;stroke-miterlimit:4;stroke-dasharray:none;stroke-dashoffset:0;stroke-opacity:1" />
    </g>
  </g>
</svg>
